HIERARCHY
ROOT Hips
{
	OFFSET -3.958830 18.904000 13.208200
	CHANNELS 6 Xposition Yposition Zposition Zrotation Yrotation Xrotation 
	JOINT LHipJoint
	{
		OFFSET 0.000000 0.000000 0.000000
		CHANNELS 3 Zrotation Yrotation Xrotation
		JOINT LeftUpLeg
		{
			OFFSET 1.800000 -1.400000 0.085000
			CHANNELS 3 Zrotation Yrotation Xrotation
			JOINT LeftLeg
			{
				OFFSET 2.215000 -6.000000 0.000000
				CHANNELS 3 Zrotation Yrotation Xrotation
				JOINT LeftFoot
				{
					OFFSET 2.500000 -6.900000 0.000000
					CHANNELS 3 Zrotation Yrotation Xrotation
					JOINT LeftToeBase
					{
						OFFSET 0.200000 -0.500000 1.950000
						CHANNELS 3 Zrotation Yrotation Xrotation
						End Site
						{
							OFFSET 0.000000 0.000000 0.000000
						}
					}
				}
			}
		}
	}
	JOINT RHipJoint
	{
		OFFSET 0.000000 0.000000 0.000000
		CHANNELS 3 Zrotation Yrotation Xrotation
		JOINT RightUpLeg
		{
			OFFSET -1.800000 -1.400000 0.085000
			CHANNELS 3 Zrotation Yrotation Xrotation
			JOINT RightLeg
			{
				OFFSET -2.215000 -6.000000 0.000000
				CHANNELS 3 Zrotation Yrotation Xrotation
				JOINT RightFoot
				{
					OFFSET -2.500000 -6.900000 0.000000
					CHANNELS 3 Zrotation Yrotation Xrotation
					JOINT RightToeBase
					{
						OFFSET -0.200000 -0.500000 1.950000
						CHANNELS 3 Zrotation Yrotation Xrotation
						End Site
						{
							OFFSET 0.000000 0.000000 0.000000
						}
					}
				}
			}
		}
	}
	JOINT LowerBack
	{
		OFFSET 0.000000 0.000000 0.000000
		CHANNELS 3 Zrotation Yrotation Xrotation
		JOINT Spine
		{
			OFFSET -0.087000 1.940000 -0.288900
			CHANNELS 3 Zrotation Yrotation Xrotation
			JOINT Spine1
			{
				OFFSET 0.000000 1.950000 0.060000
				CHANNELS 3 Zrotation Yrotation Xrotation
				JOINT Neck
				{
					OFFSET 0.000000 0.000000 0.000000
					CHANNELS 3 Zrotation Yrotation Xrotation
					JOINT Neck1
					{
						OFFSET 0.000000 1.600000 0.340000
						CHANNELS 3 Zrotation Yrotation Xrotation
						JOINT Head
						{
							OFFSET 0.000000 1.667000 -0.240000
							CHANNELS 3 Zrotation Yrotation Xrotation
							End Site
							{
								OFFSET 0.000000 0.000000 0.000000
							}
						}
					}
				}
				JOINT LeftShoulder
				{
					OFFSET 0.000000 0.000000 0.000000
					CHANNELS 3 Zrotation Yrotation Xrotation
					JOINT LeftArm
					{
						OFFSET 2.700000 1.550000 -0.730000
						CHANNELS 3 Zrotation Yrotation Xrotation
						JOINT LeftForeArm
						{
							OFFSET 5.450000 0.000000 0.000000
							CHANNELS 3 Zrotation Yrotation Xrotation
							JOINT LeftHand
							{
								OFFSET 3.450000 0.000000 0.000000
								CHANNELS 3 Zrotation Yrotation Xrotation
								JOINT LeftHandIndex1
								{
									OFFSET 0.750000 0.000000 0.000000
									CHANNELS 3 Zrotation Yrotation Xrotation
									End Site
									{
										OFFSET 0.000000 0.000000 0.000000
									}
								}
							}
						}
					}
				}
				JOINT RightShoulder
				{
					OFFSET 0.000000 0.000000 0.000000
					CHANNELS 3 Zrotation Yrotation Xrotation
					JOINT RightArm
					{
						OFFSET -2.700000 1.550000 -0.730000
						CHANNELS 3 Zrotation Yrotation Xrotation
						JOINT RightForeArm
						{
							OFFSET -5.450000 0.000000 0.000000
							CHANNELS 3 Zrotation Yrotation Xrotation
							JOINT RightHand
							{
								OFFSET -3.450000 0.000000 0.000000
								CHANNELS 3 Zrotation Yrotation Xrotation
								JOINT RightHandIndex1
								{
									OFFSET -0.750000 0.000000 0.000000
									CHANNELS 3 Zrotation Yrotation Xrotation
									End Site
									{
										OFFSET 0.000000 0.000000 0.000000
									}
								}
							}
						}
					}
				}
			}
		}
	}
}
MOTION
Frames: 14
Frame Time: 0.016667
0.534970 17.567480 -4.082050 -6.363422 14.785017 -4.030813 -15.173842 12.392884 2.171984 -1.802817 -2.520513 -21.080201 8.192741 4.143486 34.983525 -0.309101 4.959008 2.675031 0.645860 0.368300 0.808410 18.557159 -8.581796 6.205254 -23.579061 14.673822 -49.664629 17.324726 -30.304444 79.607908 -3.066909 -14.808549 -0.316994 0.156410 -0.399620 0.117900 -4.119645 -1.780403 -9.295756 16.464503 -5.956405 31.882278 -9.826218 -1.658499 3.019220 6.060775 4.498025 -13.806120 7.618201 -5.140999 45.500171 -6.073000 0.221650 -24.443720 -31.799391 -23.812669 10.718173 -39.969844 6.128075 -12.508242 -6.062261 -37.399752 -1.137540 -2.998794 3.033653 0.818440 -0.314400 0.415680 -0.023060 18.462784 25.303615 5.842837 48.831829 25.108799 -5.164146 6.721634 35.188236 -0.208646 2.163901 -1.180422 -0.069660 0.146490 -0.232600 -0.387370 
0.554600 17.547270 -4.096170 -6.838046 14.605612 -4.761163 -15.173126 12.421298 2.118475 -1.546302 -2.364104 -21.070417 8.478623 4.213892 35.871372 -0.273853 5.079095 2.614536 0.691090 0.434540 0.808310 18.575614 -8.440250 6.318984 -23.341426 15.478676 -50.832588 16.582391 -30.951554 82.221961 -3.211994 -15.203547 -0.395704 0.183630 -0.429100 0.104670 -4.134101 -1.958538 -9.336894 16.998300 -6.568993 33.359616 -10.377938 -1.874186 3.216343 6.107722 3.311048 -13.922254 5.092295 -4.181844 47.204164 -4.573350 -0.392170 -25.979260 -32.158469 -24.230809 10.448477 -39.258273 5.331706 -12.658967 -5.416032 -37.858554 -1.317370 -2.926871 3.057485 0.836850 -0.360810 0.444270 -0.007520 18.777043 26.518231 6.152735 47.586635 25.237768 -5.883707 5.710811 35.696511 -0.482840 2.153176 -1.173039 -0.046460 0.154950 -0.252870 -0.370380 
0.614060 17.476840 -4.137560 -8.991869 14.010874 -6.342099 -15.169565 12.373629 1.932287 -0.230337 -2.076708 -22.079671 9.547007 4.339695 38.697303 -0.203639 5.544021 2.413409 0.772480 0.536750 0.815400 18.658072 -7.928447 6.763498 -24.082017 17.467007 -55.529062 16.985121 -35.148396 88.302005 -3.678947 -16.607460 -0.670632 0.231650 -0.470220 0.099350 -4.198190 -2.357792 -9.463397 19.772792 -8.624207 36.853065 -12.378299 -2.213628 3.625825 6.633949 0.901622 -14.416733 -0.459436 -2.503514 49.446869 -1.766320 -2.232690 -29.600230 -33.991169 -25.580675 9.771034 -36.407645 3.218796 -13.171178 -3.861434 -39.143102 -1.803612 -2.784533 3.124619 0.883920 -0.442180 0.498280 0.016540 19.491147 29.568513 7.061111 43.982977 24.990004 -8.388149 2.653126 37.939237 -1.421727 2.087261 -1.156945 -0.010990 0.182970 -0.274420 -0.341970 
0.665210 17.401880 -4.160930 -9.878887 14.346588 -7.229670 -15.202465 12.179451 1.896912 0.034191 -2.359489 -23.683663 10.204705 4.666460 42.807737 -0.070039 6.227073 2.150822 0.873470 0.683880 0.808160 18.726657 -7.374388 7.152994 -25.764853 18.405856 -61.212270 15.924320 -39.209700 95.196809 -4.133539 -18.036195 -0.918300 0.310050 -0.492290 0.076460 -4.191682 -2.712447 -9.638650 20.712415 -9.712603 39.681194 -13.348076 -2.296881 4.562913 7.027806 -1.746157 -14.817714 -6.926226 -1.043069 50.941416 1.671770 -4.739660 -32.909380 -35.639948 -26.649288 8.509566 -33.139754 -1.102929 -13.740623 -2.634979 -40.400168 -2.222727 -2.649032 3.170878 0.903880 -0.517820 0.545970 0.070310 20.535279 32.340834 8.128890 40.001054 23.856985 -10.627677 -1.452051 38.492332 -2.675247 2.030538 -1.149759 0.028100 0.236740 -0.315950 -0.288060 
0.712860 17.368450 -4.165890 -10.963444 15.299556 -8.116741 -15.210851 12.024324 1.877372 0.733249 -2.855628 -24.424353 10.000518 5.053868 45.643108 0.029887 6.715384 1.961444 0.944110 0.796810 0.765080 18.787016 -6.940578 7.408441 -27.033099 18.502592 -65.552971 16.300330 -43.869861 99.644963 -4.528486 -19.235459 -1.101055 0.367950 -0.494380 0.032260 -4.229502 -3.049935 -9.739256 21.453728 -11.769471 42.228762 -14.401712 -2.875977 6.321771 7.243206 -4.859704 -16.667999 -15.284863 1.971164 52.140808 7.627260 -6.719970 -36.496140 -36.569128 -29.272916 8.024917 -30.091424 -4.912348 -15.630538 -0.655383 -42.604967 -3.242405 -2.455234 3.215606 0.940680 -0.610640 0.581010 0.113970 21.302949 36.594767 9.889276 35.827778 22.717731 -12.497614 -6.558675 36.732774 -3.951841 1.996522 -1.115243 0.051210 0.307570 -0.330850 -0.226840 
0.711100 17.377980 -4.156110 -11.843149 17.251760 -8.938289 -15.235654 11.860714 1.954143 2.519948 -3.794417 -25.058168 7.730957 6.262111 47.878766 0.134791 7.184105 1.774175 1.008910 0.888000 0.742010 18.797143 -6.589795 7.542372 -27.140260 18.172166 -69.071402 17.972862 -48.525848 101.793506 -4.858145 -20.172724 -1.229765 0.402920 -0.512620 0.009190 -4.186605 -3.354370 -9.865839 20.643380 -13.344754 45.079771 -14.477267 -3.072288 7.688239 7.233417 -6.536888 -19.045854 -21.322250 3.564890 52.500568 12.942120 -8.141850 -39.347070 -37.477390 -32.213950 7.798530 -27.008724 -8.966236 -17.836852 3.505954 -44.729210 -5.030420 -2.302974 3.241247 0.968630 -0.694090 0.618750 0.147820 22.560845 40.180968 11.856262 32.230906 20.989635 -12.894502 -11.321198 31.740844 -4.448934 2.038698 -1.125571 0.088910 0.333560 -0.354800 -0.177130 
0.684960 17.411890 -4.108640 -13.133673 16.808557 -10.182069 -15.247303 11.904990 1.932662 6.941662 -3.514296 -24.028060 3.265939 8.924804 48.250008 0.221254 7.685050 1.578086 1.028920 0.929900 0.719570 18.757658 -6.495363 7.520824 -23.369441 21.278364 -72.887142 16.512548 -49.569912 105.623236 -5.134181 -21.045987 -1.329949 0.411290 -0.504720 -0.003540 -4.092585 -3.493809 -9.925259 18.845043 -13.182376 48.670897 -13.338860 -2.074723 7.750391 6.756163 -7.093845 -20.781654 -24.201722 4.349210 52.867536 16.407440 -8.118550 -40.366570 -37.645070 -34.313705 7.104163 -25.564626 -12.885377 -19.028328 8.066172 -47.488003 -7.041254 -2.315808 3.135317 0.984000 -0.724950 0.640220 0.167590 24.162325 42.183334 13.649458 29.316122 19.376037 -11.277271 -11.880265 25.449119 -3.337880 2.130809 -1.116067 0.104650 0.354970 -0.363390 -0.149150 
0.631260 17.423550 -4.004220 -13.591975 17.553775 -11.145993 -15.274612 11.896939 2.035054 11.036949 -3.617008 -22.384437 -1.389370 11.335131 47.339440 0.320154 8.147578 1.423633 1.004430 0.898360 0.694620 18.688238 -6.486437 7.380751 -19.106254 23.812430 -75.418067 15.506210 -50.170444 108.274467 -5.303451 -21.694445 -1.404771 0.392700 -0.469410 -0.004900 -3.950712 -3.578630 -10.014501 16.065824 -11.815825 50.858695 -11.032989 -1.048793 6.654468 5.578754 -7.126382 -20.970778 -24.286731 3.432496 52.209490 18.014000 -8.224610 -38.520920 -37.191858 -35.114111 6.012576 -25.102348 -17.158061 -18.336332 10.135674 -49.612087 -7.878582 -2.410482 3.040456 0.956290 -0.702210 0.612690 0.177930 26.510855 42.066203 14.938287 27.785742 16.967362 -8.869830 -10.555108 19.933698 -2.085470 2.245624 -1.113071 0.100180 0.342150 -0.362830 -0.138740 
0.602740 17.496450 -3.862310 -13.140586 20.629682 -12.484183 -15.300101 11.992317 2.053020 13.285696 -4.157463 -18.953113 -4.991238 12.191570 44.428892 0.355246 8.134118 1.460719 0.916780 0.809290 0.609350 18.609064 -6.551860 7.226507 -15.710409 24.144258 -75.932287 16.131760 -50.544955 108.241570 -5.312416 -21.814249 -1.393332 0.339720 -0.386250 -0.021700 -3.841932 -3.757326 -10.018877 12.814387 -11.221489 52.618535 -8.520858 -1.223694 5.693759 4.140094 -7.319799 -21.460409 -24.899753 3.539523 51.633341 20.466240 -8.220660 -35.956410 -36.562562 -36.063828 5.775250 -25.040932 -20.006145 -17.943255 12.272707 -52.484232 -9.122366 -2.490563 2.956051 0.917210 -0.656710 0.551120 0.176700 29.191837 41.656665 16.122573 27.359393 14.088759 -7.067890 -9.639315 15.283289 -1.229754 2.342779 -1.074079 0.073970 0.351000 -0.320110 -0.116570 
0.601350 17.591370 -3.722480 -13.111020 22.428762 -12.878361 -15.307465 12.084078 2.098598 15.139229 -4.544356 -16.332753 -7.623426 12.400991 41.132128 0.340409 7.963736 1.544790 0.884840 0.781350 0.585160 18.574838 -6.707123 7.049086 -9.346051 25.041641 -75.178708 11.155711 -45.026456 109.961299 -5.102909 -21.146222 -1.291452 0.319950 -0.332560 -0.013670 -3.816107 -3.783514 -9.992761 10.611837 -11.022724 52.053781 -7.286087 -1.339466 6.995950 3.400225 -6.893116 -22.550397 -23.989353 3.387247 51.400637 20.517360 -7.635920 -33.807580 -35.549977 -38.004224 6.010045 -23.936373 -22.377152 -18.092270 19.754635 -53.961830 -12.637778 -2.633793 2.797952 0.888580 -0.609560 0.528700 0.187270 29.781481 42.468441 17.229457 27.859516 12.329404 -4.759288 -8.317455 10.110465 -0.446145 2.423721 -1.031983 0.066080 0.361920 -0.308860 -0.106410 
0.603930 17.709850 -3.573250 -13.103791 23.899886 -13.221136 -15.328528 12.273091 2.053550 16.270651 -4.669659 -13.381337 -8.735223 11.700913 37.112512 0.208479 7.530248 1.692333 0.858200 0.728330 0.588180 18.522553 -6.875614 6.928880 -2.175135 25.777257 -73.447929 7.147447 -39.243975 109.980860 -4.805357 -20.141700 -1.164605 0.310660 -0.316310 0.011060 -3.751701 -3.879254 -9.939207 8.683344 -10.288471 50.848126 -5.882796 -1.109878 8.187573 2.678376 -6.094435 -22.952343 -21.962402 2.837683 51.650799 19.479240 -6.841460 -31.734750 -34.456643 -39.489382 6.060862 -22.991542 -24.516760 -17.700008 27.105531 -54.982391 -16.290388 -2.806206 2.661290 0.892260 -0.567440 0.504650 0.166200 30.126200 42.841128 17.878119 29.480572 10.207895 -2.011205 -4.334504 4.173160 0.381899 2.491531 -0.941267 0.039700 0.336580 -0.278860 -0.140220 
0.674680 17.817880 -3.397690 -12.266267 27.198768 -13.263497 -15.327254 12.583483 1.883723 14.712662 -4.751566 -9.950464 -7.192349 9.726187 33.086442 0.051172 6.706016 2.050861 0.788190 0.643420 0.552310 18.477291 -7.229346 6.761132 3.211612 22.984885 -70.062313 4.733509 -33.086129 105.841473 -4.318435 -18.547624 -0.900109 0.281480 -0.240600 0.000770 -3.827761 -3.903263 -9.761483 7.464436 -10.807090 48.024124 -5.526504 -2.502660 9.145062 1.884222 -5.190213 -22.387348 -19.880428 2.406420 51.776094 18.530580 -6.591270 -28.774990 -33.836179 -40.144067 6.999570 -22.630467 -25.853992 -16.893652 32.604878 -55.806142 -19.203531 -3.001140 2.527090 0.860820 -0.497060 0.442360 0.159890 30.648928 41.925095 17.849910 32.437845 7.703945 -0.584239 -1.274089 -0.075513 0.689905 2.521350 -0.886430 -0.008960 0.362960 -0.240580 -0.150120 
0.762270 17.922120 -3.219110 -12.245209 29.943497 -13.178579 -15.312511 12.783543 1.786513 14.235209 -4.363089 -6.662632 -6.251404 8.403556 28.148264 -0.050928 6.004998 2.360328 0.730420 0.593640 0.492050 18.447038 -7.545779 6.558424 5.494593 19.935454 -69.379758 6.143539 -30.266743 98.657871 -3.901493 -17.312235 -0.680066 0.265980 -0.161090 0.004660 -3.949652 -3.823550 -9.596428 7.677056 -11.610284 43.991429 -5.534680 -3.998956 10.823696 1.197054 -4.316153 -21.172756 -17.641666 1.481525 50.740785 17.418220 -6.944590 -25.850370 -32.494886 -40.184359 7.825047 -22.569726 -28.031350 -15.550319 36.458071 -54.695790 -20.770464 -3.189027 2.479218 0.782630 -0.413390 0.368650 0.161710 30.255712 40.354765 17.478877 35.353537 6.022972 0.116196 0.067647 -3.278057 0.803230 2.548913 -0.923868 -0.022540 0.364880 -0.205900 -0.131930 
0.881020 18.022990 -3.025650 -11.311321 31.239401 -12.647533 -15.290857 12.912167 1.858416 13.547825 -3.560685 -2.807280 -6.536421 7.799037 22.486679 -0.071167 5.564961 2.595690 0.697600 0.550430 0.453160 18.426668 -7.891074 6.213181 7.459314 16.753241 -65.826731 6.815748 -26.942604 90.602710 -3.426999 -15.754821 -0.384388 0.256600 -0.098320 0.010610 -4.059421 -3.698885 -9.444510 7.710052 -11.497002 39.429961 -5.901449 -4.925205 12.976499 0.685441 -4.090410 -20.414331 -17.245476 1.161745 50.111948 16.772530 -7.676060 -23.197910 -31.366691 -39.722820 8.722290 -23.362781 -29.810508 -14.397694 40.839633 -53.723951 -22.939147 -3.357774 2.461703 0.724280 -0.358490 0.310650 0.176030 30.042897 38.966274 17.566023 38.129134 3.592821 0.151739 0.501941 -4.407789 0.862105 2.543830 -0.995616 -0.033680 0.364740 -0.188540 -0.115260 
